# xmcd
#
# Track frame offsets: 
#        150
#        17163
#        33353
#        46345
#        64188
#        80563
#        91138
#        102228
#        127950
#        142645
#        159490
#        174735
#        185770
#
# Disc length: 2730 seconds
#
# Revision: 0
# Processed by: cddbd v1.5.2PL0 Copyright (c) Steve Scherf et al.
# Submitted via: ExactAudioCopyFreeDBPlugin 1.0
#
DISCID=a30aa80d
DTITLE=Mojo and The Bayou Gypsies - Red Hot Mojo
DYEAR=1900
DGENRE=Zydeco
TTITLE0=Laissez l'Zydeco Rouler
TTITLE1=Hello Josephine
TTITLE2=Voulez Vous Danser
TTITLE3=Whoa! Zydeco
TTITLE4=Sugar Bee
TTITLE5=She's Naked Y'all
TTITLE6=Back Door
TTITLE7=Down Luzianne
TTITLE8=Jump Up And Shout
TTITLE9=Ma Cher Catin
TTITLE10=Red Hot Mojo
TTITLE11=Bon Zydeco
TTITLE12=Hot Tamale Baby
EXTD=
EXTT0=
EXTT1=
EXTT2=
EXTT3=
EXTT4=
EXTT5=
EXTT6=
EXTT7=
EXTT8=
EXTT9=
EXTT10=
EXTT11=
EXTT12=
PLAYORDER=
